<svg width="1em" height="1em" viewBox="0 0 240 257" fill="none" xmlns="http://www.w3.org/2000/svg">
<path d="M120.5 239.622V140.661L179.5 157.378V256.339L120.5 239.622Z" fill="white" stroke="#61C2CF"/>
<path d="M180.5 157.378V256.349L239.5 240.616V140.661L180.5 157.378Z" fill="white" stroke="#61C2CF"/>
<path d="M180 157L121 140L180 121L238 140L180 157Z" fill="white" stroke="#61C2CF"/>
<path d="M60.5 120.14V20.6613L119.5 37.378V139.806L60.5 120.14Z" fill="white" stroke="#61C2CF"/>
<path d="M120.5 37.378L120.5 139.812L179.5 120.637V20.6613L120.5 37.378Z" fill="white" stroke="#61C2CF"/>
<path d="M120 37L62 20L120 1L178 20L120 37Z" fill="white" stroke="#61C2CF"/>
<path d="M0.5 239.622V140.661L59.5 157.378V256.339L0.5 239.622Z" fill="white" stroke="#61C2CF"/>
<path d="M60.5 157.378L60.5 256.349L119.5 240.616L119.5 140.661L60.5 157.378Z" fill="white" stroke="#61C2CF"/>
<path d="M60 157L2 140L60 121L119 140L60 157Z" fill="white" stroke="#61C2CF"/>
</svg>
