<svg width="1em" height="1em" viewBox="0 0 54 30" fill="none" xmlns="http://www.w3.org/2000/svg">
<path fill-rule="evenodd" clip-rule="evenodd" d="M37.5 30C37.5 30 40 30 40 27.5C40 25 37.5 17.5 27.5 17.5C17.5 17.5 15 25 15 27.5C15 30 17.5 30 17.5 30H37.5ZM17.555 27.5H37.445C37.4567 27.4986 37.4684 27.497 37.48 27.495L37.5 27.49C37.495 26.83 37.0825 24.915 35.6 23.19C34.22 21.5725 31.795 20 27.5 20C23.2075 20 20.7825 21.575 19.4 23.19C17.9175 24.915 17.5025 26.8325 17.5 27.49C17.5183 27.4935 17.5366 27.4969 17.555 27.5ZM27.5 12.5C28.8261 12.5 30.0979 11.9732 31.0355 11.0355C31.9732 10.0979 32.5 8.82608 32.5 7.5C32.5 6.17392 31.9732 4.90215 31.0355 3.96447C30.0979 3.02678 28.8261 2.5 27.5 2.5C26.1739 2.5 24.9021 3.02678 23.9645 3.96447C23.0268 4.90215 22.5 6.17392 22.5 7.5C22.5 8.82608 23.0268 10.0979 23.9645 11.0355C24.9021 11.9732 26.1739 12.5 27.5 12.5ZM35 7.5C35 8.48491 34.806 9.46018 34.4291 10.3701C34.0522 11.2801 33.4997 12.1069 32.8033 12.8033C32.1069 13.4997 31.2801 14.0522 30.3701 14.4291C29.4602 14.806 28.4849 15 27.5 15C26.5151 15 25.5398 14.806 24.6299 14.4291C23.7199 14.0522 22.8931 13.4997 22.1967 12.8033C21.5003 12.1069 20.9478 11.2801 20.5709 10.3701C20.194 9.46018 20 8.48491 20 7.5C20 5.51088 20.7902 3.60322 22.1967 2.1967C23.6032 0.790177 25.5109 0 27.5 0C29.4891 0 31.3968 0.790177 32.8033 2.1967C34.2098 3.60322 35 5.51088 35 7.5ZM17.34 18.2C16.34 17.8851 15.3091 17.6781 14.265 17.5825C13.6783 17.5267 13.0893 17.4992 12.5 17.5C2.5 17.5 0 25 0 27.5C0 29.1675 0.8325 30 2.5 30H13.04C12.6694 29.2195 12.4846 28.3638 12.5 27.5C12.5 24.975 13.4425 22.395 15.225 20.24C15.8325 19.505 16.54 18.8175 17.34 18.2ZM12.3 20C8.13 20.05 5.7625 21.6 4.4 23.19C2.9075 24.925 2.5 26.8475 2.5 27.5H10C10 24.8875 10.8075 22.285 12.3 20ZM3.75 8.75C3.75 6.76088 4.54018 4.85322 5.9467 3.4467C7.35322 2.04018 9.26088 1.25 11.25 1.25C13.2391 1.25 15.1468 2.04018 16.5533 3.4467C17.9598 4.85322 18.75 6.76088 18.75 8.75C18.75 10.7391 17.9598 12.6468 16.5533 14.0533C15.1468 15.4598 13.2391 16.25 11.25 16.25C9.26088 16.25 7.35322 15.4598 5.9467 14.0533C4.54018 12.6468 3.75 10.7391 3.75 8.75ZM11.25 3.75C9.92392 3.75 8.65215 4.27678 7.71447 5.21447C6.77678 6.15215 6.25 7.42392 6.25 8.75C6.25 10.0761 6.77678 11.3479 7.71447 12.2855C8.65215 13.2232 9.92392 13.75 11.25 13.75C12.5761 13.75 13.8479 13.2232 14.7855 12.2855C15.7232 11.3479 16.25 10.0761 16.25 8.75C16.25 7.42392 15.7232 6.15215 14.7855 5.21447C13.8479 4.27678 12.5761 3.75 11.25 3.75Z" fill="white"/>
<path fill-rule="evenodd" clip-rule="evenodd" d="M37.3536 18.0974C38.3136 17.7797 39.3033 17.5709 40.3056 17.4745C40.8688 17.4182 41.4343 17.3905 42 17.3913C51.6 17.3913 54 24.9565 54 27.4783C54 29.1603 53.2008 30 51.6 30H41.4816C41.8374 29.2127 42.0148 28.3496 42 27.4783C42 24.9313 41.0952 22.3289 39.384 20.1551C38.8008 19.4137 38.1216 18.7203 37.3536 18.0974ZM42.192 19.913C46.1952 19.9635 48.468 21.527 49.776 23.1308C51.2088 24.8809 51.6 26.8201 51.6 27.4783H44.4C44.4 24.843 43.6248 22.2179 42.192 19.913ZM50.4 8.56522C50.4 6.5588 49.6414 4.63455 48.2912 3.2158C46.9409 1.79705 45.1096 1 43.2 1C41.2904 1 39.4591 1.79705 38.1088 3.2158C36.7586 4.63455 36 6.5588 36 8.56522C36 10.5716 36.7586 12.4959 38.1088 13.9146C39.4591 15.3334 41.2904 16.1304 43.2 16.1304C45.1096 16.1304 46.9409 15.3334 48.2912 13.9146C49.6414 12.4959 50.4 10.5716 50.4 8.56522ZM43.2 3.52174C44.473 3.52174 45.6939 4.0531 46.5941 4.99894C47.4943 5.94478 48 7.2276 48 8.56522C48 9.90283 47.4943 11.1857 46.5941 12.1315C45.6939 13.0773 44.473 13.6087 43.2 13.6087C41.927 13.6087 40.7061 13.0773 39.8059 12.1315C38.9057 11.1857 38.4 9.90283 38.4 8.56522C38.4 7.2276 38.9057 5.94478 39.8059 4.99894C40.7061 4.0531 41.927 3.52174 43.2 3.52174Z" fill="white"/>
</svg>
