<svg width="1em" height="1em" viewBox="0 0 125 84" fill="none" xmlns="http://www.w3.org/2000/svg">
<path d="M121 62.587C121 70.8425 119.302 74.9124 117.241 77C115.224 79.044 112.013 80.0435 106.728 79.9986C102.055 79.9588 96.5514 79.1276 90.0691 78.1485C89.2031 78.0177 88.3197 77.8843 87.4184 77.7497C79.9193 76.6303 71.4476 75.4855 62.5 75.4855C53.5524 75.4855 45.0807 76.6303 37.5816 77.7497C36.6803 77.8843 35.7969 78.0177 34.931 78.1485C28.4486 79.1276 22.9453 79.9588 18.2718 79.9986C12.9872 80.0435 9.77582 79.044 7.75851 77C5.69815 74.9124 4 70.8425 4 62.587C4 30.225 30.1966 4 62.5 4C94.8034 4 121 30.225 121 62.587Z" stroke="white" stroke-width="8"/>
<rect x="7" y="52" width="17" height="8" fill="white"/>
<rect x="102" y="52" width="17" height="8" fill="white"/>
<rect x="58" y="22" width="14" height="8" transform="rotate(-90 58 22)" fill="white"/>
<rect width="10" height="7" transform="matrix(0.711278 -0.70291 0.711278 0.70291 94 30.0291)" fill="white"/>
<rect width="10" height="7" transform="matrix(0.711278 0.70291 -0.711278 0.70291 22.9789 23)" fill="white"/>
<path d="M64 64.8529C64 65.9951 63.0598 66.9412 61.875 66.9412C60.6902 66.9412 59.75 65.9951 59.75 64.8529C59.75 63.7108 60.6902 62.7647 61.875 62.7647C63.0598 62.7647 64 63.7108 64 64.8529Z" stroke="white" stroke-width="2"/>
<path d="M41.3746 39.404C41.7557 38.2009 43.1811 36.6501 43.1811 36.6501C43.1811 36.6501 46.0269 35.3619 47.1852 35.8056C48.3436 36.2493 62.3474 58.809 62.3474 58.809L59.7216 61.1088L55.8492 62.7812C55.8492 62.7812 40.9936 40.6071 41.3746 39.404Z" fill="white"/>
</svg>
